<svg width="14" height="14" viewBox="0 0 14 14" fill="none" xmlns="http://www.w3.org/2000/svg">
<path d="M7 1.67163C8.7355 1.67163 8.94133 1.67813 9.62708 1.70954C11.3886 1.78971 12.2114 2.6255 12.2915 4.374C12.323 5.05921 12.3289 5.26504 12.3289 7.00054C12.3289 8.73658 12.3224 8.94188 12.2915 9.62708C12.2108 11.374 11.3902 12.2114 9.62708 12.2915C8.94133 12.323 8.73658 12.3295 7 12.3295C5.2645 12.3295 5.05867 12.323 4.37346 12.2915C2.60763 12.2108 1.78917 11.3713 1.709 9.62654C1.67758 8.94133 1.67108 8.73604 1.67108 7C1.67108 5.2645 1.67813 5.05921 1.709 4.37346C1.78971 2.6255 2.61033 1.78917 4.37346 1.709C5.05921 1.67813 5.2645 1.67163 7 1.67163ZM7 0.5C5.23471 0.5 5.01371 0.507583 4.32038 0.539C1.95979 0.647333 0.647875 1.95708 0.539542 4.31983C0.507583 5.01371 0.5 5.23471 0.5 7C0.5 8.76529 0.507583 8.98683 0.539 9.68017C0.647333 12.0408 1.95708 13.3527 4.31983 13.461C5.01371 13.4924 5.23471 13.5 7 13.5C8.76529 13.5 8.98683 13.4924 9.68017 13.461C12.0386 13.3527 13.3538 12.0429 13.4605 9.68017C13.4924 8.98683 13.5 8.76529 13.5 7C13.5 5.23471 13.4924 5.01371 13.461 4.32038C13.3548 1.96196 12.0435 0.647875 9.68071 0.539542C8.98683 0.507583 8.76529 0.5 7 0.5V0.5ZM7 3.66225C5.15671 3.66225 3.66225 5.15671 3.66225 7C3.66225 8.84329 5.15671 10.3383 7 10.3383C8.84329 10.3383 10.3378 8.84383 10.3378 7C10.3378 5.15671 8.84329 3.66225 7 3.66225ZM7 9.16667C5.80346 9.16667 4.83333 8.19708 4.83333 7C4.83333 5.80346 5.80346 4.83333 7 4.83333C8.19654 4.83333 9.16667 5.80346 9.16667 7C9.16667 8.19708 8.19654 9.16667 7 9.16667ZM10.4699 2.75063C10.0388 2.75063 9.68938 3.1 9.68938 3.53063C9.68938 3.96125 10.0388 4.31063 10.4699 4.31063C10.9005 4.31063 11.2494 3.96125 11.2494 3.53063C11.2494 3.1 10.9005 2.75063 10.4699 2.75063Z" fill="#171A1C"/>
</svg>
