<svg width="155" height="26" viewBox="0 0 155 26" fill="none" xmlns="http://www.w3.org/2000/svg">
<path d="M13.0151 15.7951L12.0414 14.8201L7.49756 19.3701L9.76949 21.6451L12.366 20.6701L10.0941 18.7201L10.7432 18.0701L13.0151 20.0201L15.287 18.0701L15.9362 18.7201L13.6642 20.6701L16.2607 21.6451L18.5327 19.3701L13.9888 14.8201L13.0151 15.7951Z" fill="#4B0D73"/>
<path d="M10.2563 13.0326L11.23 12.0576L6.68611 7.50757L4.41418 9.78257L5.38786 12.3826L7.33524 10.1076L7.98436 10.7576L6.03699 13.0326L7.98436 15.3076L7.33524 15.9576L5.38786 13.6826L4.41418 16.2826L6.68611 18.5576L11.23 14.0076L10.2563 13.0326Z" fill="#4B0D73"/>
<path d="M13.0151 10.2701L12.0414 11.2451L7.49756 6.69512L9.76949 4.42012L12.366 5.39512L10.0941 7.34512L10.7432 7.99512L13.0151 6.04512L15.287 7.99512L15.9362 7.34512L13.6642 5.39512L16.2607 4.42012L18.5327 6.69512L13.9888 11.2451L13.0151 10.2701Z" fill="#4B0D73"/>
<path d="M15.774 13.0326L14.8003 12.0576L19.3442 7.50757L21.6161 9.78257L20.6424 12.3826L18.695 10.1076L18.0459 10.7576L19.9933 13.0326L18.0459 15.3076L18.695 15.9576L20.6424 13.6826L21.6161 16.2826L19.3442 18.5576L14.8003 14.0076L15.774 13.0326Z" fill="#4B0D73"/>
<path fill-rule="evenodd" clip-rule="evenodd" d="M12.9825 24.05C19.077 24.05 24.0176 19.1027 24.0176 13C24.0176 6.89725 19.077 1.95 12.9825 1.95C6.88796 1.95 1.94737 6.89725 1.94737 13C1.94737 19.1027 6.88796 24.05 12.9825 24.05ZM12.9825 26C20.1525 26 25.965 20.1797 25.965 13C25.965 5.8203 20.1525 0 12.9825 0C5.81246 0 0 5.8203 0 13C0 20.1797 5.81246 26 12.9825 26Z" fill="#4B0D73"/>
<path d="M35.0527 7.15039H44.1405V8.45039H35.0527V7.15039Z" fill="#4B0D73"/>
<path d="M40.2456 7.1499L40.2456 18.8499L38.9473 18.8499L38.9473 7.1499L40.2456 7.1499Z" fill="#4B0D73"/>
<path d="M76.5972 7.15002H85.6849V8.45002H76.5972V7.15002Z" fill="#4B0D73"/>
<path d="M81.7905 7.15002L81.7905 18.85L80.4922 18.85L80.4922 7.15002L81.7905 7.15002Z" fill="#4B0D73"/>
<path d="M122.685 7.15002L122.685 18.85L121.386 18.85L121.386 7.15002L122.685 7.15002Z" fill="#4B0D73"/>
<path d="M130.474 7.15002L130.474 18.85L129.175 18.85L129.175 7.15002L130.474 7.15002Z" fill="#4B0D73"/>
<path d="M122.035 15.6L129.825 15.6V16.9H122.035V15.6Z" fill="#4B0D73"/>
<path d="M56.4741 15.6H64.2636V16.9H56.4741V15.6Z" fill="#4B0D73"/>
<path d="M61.0182 8.45002L55.6911 18.8674L54.2023 18.85L60.3689 7.15002L61.0182 8.45002Z" fill="#4B0D73"/>
<path d="M59.784 8.45002L65.1111 18.8674L66.5999 18.85L60.4334 7.15002L59.784 8.45002Z" fill="#4B0D73"/>
<path d="M144.43 15.6H152.219V16.9H144.43V15.6Z" fill="#4B0D73"/>
<path d="M148.974 8.45002L143.647 18.8674L142.158 18.85L148.324 7.15002L148.974 8.45002Z" fill="#4B0D73"/>
<path d="M147.74 8.45002L153.067 18.8674L154.556 18.85L148.389 7.15002L147.74 8.45002Z" fill="#4B0D73"/>
<path d="M107.991 17.1366C107.174 17.9547 106.133 18.5119 104.999 18.7376C103.866 18.9633 102.692 18.8475 101.624 18.4047C100.557 17.9619 99.6441 17.2121 99.0022 16.2501C98.3602 15.2881 98.0176 14.157 98.0176 13C98.0176 11.843 98.3602 10.712 99.0022 9.74994C99.6441 8.78791 100.557 8.0381 101.624 7.59533C102.692 7.15256 103.866 7.03671 104.999 7.26243C106.133 7.48816 107.174 8.04531 107.991 8.86345L106.999 9.85623C106.378 9.23444 105.587 8.811 104.726 8.63945C103.865 8.46791 102.972 8.55595 102.161 8.89246C101.349 9.22897 100.656 9.79882 100.168 10.53C99.6801 11.2611 99.4197 12.1207 99.4197 13C99.4197 13.8794 99.6801 14.7389 100.168 15.4701C100.656 16.2012 101.349 16.7711 102.161 17.1076C102.972 17.4441 103.865 17.5321 104.726 17.3606C105.587 17.189 106.378 16.7656 106.999 16.1438L107.991 17.1366Z" fill="#4B0D73"/>
</svg>
